# xmcd
#
# Track frame offsets: 
#        175
#        16200
#        32795
#        48940
#        70427
#        85987
#        104180
#        136062
#        150470
#        167895
#        186945
#        203267
#        220122
#        239145
#
# Disc length: 3421 seconds
#
# Revision: 5
# Processed by: cddbd v1.5.2PL0 Copyright (c) Steve Scherf et al.
# Submitted via: ExactAudioCopy v1.0b2
#
DISCID=c20d5b0e
DTITLE=Fred and The Healers - Electerrified
DYEAR=2001
DGENRE=Blues
TTITLE0=Stayin'out
TTITLE1=Walkin' down town
TTITLE2=The wrong side
TTITLE3=At home last night
TTITLE4=Sacred ground
TTITLE5=Thanks for the snack
TTITLE6=The devil's cry
TTITLE7=I'm back
TTITLE8=Tell me
TTITLE9=Well but tired
TTITLE10=Watcha wanna do
TTITLE11=The parking rider
TTITLE12=Will I ever know ?
TTITLE13=Don't forget me
EXTD=
EXTT0=
EXTT1=
EXTT2=
EXTT3=
EXTT4=
EXTT5=
EXTT6=
EXTT7=
EXTT8=
EXTT9=
EXTT10=
EXTT11=
EXTT12=
EXTT13=
PLAYORDER=
